<mxfile host="app.diagrams.net" agent="Mozilla/5.0 (Windows NT 10.0; Win64; x64) AppleWebKit/537.36 (KHTML, like Gecko) Chrome/129.0.0.0 Safari/537.36" version="24.8.0">
  <diagram name="Page-1" id="pFbWnpA98Twwc6LKpX0K">
    <mxGraphModel dx="4808" dy="796" grid="1" gridSize="10" guides="1" tooltips="1" connect="1" arrows="1" fold="1" page="1" pageScale="1" pageWidth="827" pageHeight="1169" math="0" shadow="0">
      <root>
        <mxCell id="0" />
        <mxCell id="1" parent="0" />
        <mxCell id="a66DYzXwycHHfx5bdSL--32" value="Rides" style="swimlane;childLayout=stackLayout;horizontal=1;startSize=50;horizontalStack=0;rounded=1;fontSize=14;fontStyle=0;strokeWidth=2;resizeParent=0;resizeLast=1;shadow=0;dashed=0;align=center;arcSize=4;whiteSpace=wrap;html=1;" vertex="1" parent="1">
          <mxGeometry x="-1040" y="1520" width="190" height="200" as="geometry">
            <mxRectangle x="-820" y="22" width="90" height="50" as="alternateBounds" />
          </mxGeometry>
        </mxCell>
        <mxCell id="a66DYzXwycHHfx5bdSL--33" value="RideID&lt;br&gt;&lt;div&gt;PassengerId (FK Passangers)&lt;/div&gt;&lt;div&gt;DriverId (FK Drivers)&lt;/div&gt;&lt;div&gt;CarId (FK Cars)&lt;/div&gt;&lt;div&gt;StartLocationId (FK Locations)&lt;/div&gt;&lt;div&gt;EndLocationId&amp;nbsp;&lt;span style=&quot;background-color: initial;&quot;&gt;(FK Locations)&lt;/span&gt;&lt;/div&gt;&lt;div&gt;StartTime&lt;/div&gt;&lt;div&gt;EndTime&lt;/div&gt;&lt;div&gt;Faret&lt;/div&gt;&lt;div&gt;&lt;br&gt;&lt;/div&gt;" style="align=left;strokeColor=none;fillColor=none;spacingLeft=4;fontSize=12;verticalAlign=top;resizable=0;rotatable=0;part=1;html=1;" vertex="1" parent="a66DYzXwycHHfx5bdSL--32">
          <mxGeometry y="50" width="190" height="150" as="geometry" />
        </mxCell>
        <mxCell id="a66DYzXwycHHfx5bdSL--34" value="Passengers" style="swimlane;childLayout=stackLayout;horizontal=1;startSize=50;horizontalStack=0;rounded=1;fontSize=14;fontStyle=0;strokeWidth=2;resizeParent=0;resizeLast=1;shadow=0;dashed=0;align=center;arcSize=4;whiteSpace=wrap;html=1;" vertex="1" parent="1">
          <mxGeometry x="-780" y="1520" width="160" height="150" as="geometry">
            <mxRectangle x="-820" y="22" width="90" height="50" as="alternateBounds" />
          </mxGeometry>
        </mxCell>
        <mxCell id="a66DYzXwycHHfx5bdSL--35" value="PassangerId&lt;br&gt;&lt;div&gt;FirstName&lt;/div&gt;&lt;div&gt;LastName&lt;/div&gt;&lt;div&gt;Email&lt;/div&gt;&lt;div&gt;Phone&lt;/div&gt;&lt;div&gt;CreatedAt&lt;/div&gt;&lt;div&gt;&lt;br&gt;&lt;/div&gt;" style="align=left;strokeColor=none;fillColor=none;spacingLeft=4;fontSize=12;verticalAlign=top;resizable=0;rotatable=0;part=1;html=1;" vertex="1" parent="a66DYzXwycHHfx5bdSL--34">
          <mxGeometry y="50" width="160" height="100" as="geometry" />
        </mxCell>
        <mxCell id="a66DYzXwycHHfx5bdSL--36" value="Payments" style="swimlane;childLayout=stackLayout;horizontal=1;startSize=50;horizontalStack=0;rounded=1;fontSize=14;fontStyle=0;strokeWidth=2;resizeParent=0;resizeLast=1;shadow=0;dashed=0;align=center;arcSize=4;whiteSpace=wrap;html=1;" vertex="1" parent="1">
          <mxGeometry x="-1040" y="1280" width="190" height="140" as="geometry">
            <mxRectangle x="-820" y="22" width="90" height="50" as="alternateBounds" />
          </mxGeometry>
        </mxCell>
        <mxCell id="a66DYzXwycHHfx5bdSL--37" value="PaymentId&lt;br&gt;&lt;div&gt;RideId (FK Rides)&lt;/div&gt;&lt;div&gt;Amount&lt;/div&gt;&lt;div&gt;PaymentMethod&lt;/div&gt;&lt;div&gt;PaymentTime&lt;/div&gt;&lt;div&gt;&lt;br&gt;&lt;/div&gt;" style="align=left;strokeColor=none;fillColor=none;spacingLeft=4;fontSize=12;verticalAlign=top;resizable=0;rotatable=0;part=1;html=1;" vertex="1" parent="a66DYzXwycHHfx5bdSL--36">
          <mxGeometry y="50" width="190" height="90" as="geometry" />
        </mxCell>
        <mxCell id="a66DYzXwycHHfx5bdSL--38" value="Locations" style="swimlane;childLayout=stackLayout;horizontal=1;startSize=50;horizontalStack=0;rounded=1;fontSize=14;fontStyle=0;strokeWidth=2;resizeParent=0;resizeLast=1;shadow=0;dashed=0;align=center;arcSize=4;whiteSpace=wrap;html=1;" vertex="1" parent="1">
          <mxGeometry x="-1310" y="1520" width="160" height="120" as="geometry">
            <mxRectangle x="-820" y="22" width="90" height="50" as="alternateBounds" />
          </mxGeometry>
        </mxCell>
        <mxCell id="a66DYzXwycHHfx5bdSL--39" value="&lt;div&gt;LocationId&lt;/div&gt;&lt;div&gt;Latitude&lt;/div&gt;&lt;div&gt;Longitude&lt;/div&gt;&lt;div&gt;Address&lt;/div&gt;" style="align=left;strokeColor=none;fillColor=none;spacingLeft=4;fontSize=12;verticalAlign=top;resizable=0;rotatable=0;part=1;html=1;" vertex="1" parent="a66DYzXwycHHfx5bdSL--38">
          <mxGeometry y="50" width="160" height="70" as="geometry" />
        </mxCell>
        <mxCell id="a66DYzXwycHHfx5bdSL--40" value="Cars" style="swimlane;childLayout=stackLayout;horizontal=1;startSize=50;horizontalStack=0;rounded=1;fontSize=14;fontStyle=0;strokeWidth=2;resizeParent=0;resizeLast=1;shadow=0;dashed=0;align=center;arcSize=4;whiteSpace=wrap;html=1;" vertex="1" parent="1">
          <mxGeometry x="-1310" y="1770" width="160" height="150" as="geometry">
            <mxRectangle x="-820" y="22" width="90" height="50" as="alternateBounds" />
          </mxGeometry>
        </mxCell>
        <mxCell id="a66DYzXwycHHfx5bdSL--41" value="&lt;div&gt;CarId&lt;/div&gt;&lt;div&gt;Make&lt;/div&gt;&lt;div&gt;Model&lt;/div&gt;&lt;div&gt;Year&lt;/div&gt;&lt;div&gt;LicensePLate&lt;/div&gt;&lt;div&gt;Color&lt;/div&gt;" style="align=left;strokeColor=none;fillColor=none;spacingLeft=4;fontSize=12;verticalAlign=top;resizable=0;rotatable=0;part=1;html=1;" vertex="1" parent="a66DYzXwycHHfx5bdSL--40">
          <mxGeometry y="50" width="160" height="100" as="geometry" />
        </mxCell>
        <mxCell id="a66DYzXwycHHfx5bdSL--42" value="Drivers" style="swimlane;childLayout=stackLayout;horizontal=1;startSize=50;horizontalStack=0;rounded=1;fontSize=14;fontStyle=0;strokeWidth=2;resizeParent=0;resizeLast=1;shadow=0;dashed=0;align=center;arcSize=4;whiteSpace=wrap;html=1;" vertex="1" parent="1">
          <mxGeometry x="-1040" y="1880" width="190" height="160" as="geometry">
            <mxRectangle x="-820" y="22" width="90" height="50" as="alternateBounds" />
          </mxGeometry>
        </mxCell>
        <mxCell id="a66DYzXwycHHfx5bdSL--43" value="&lt;div&gt;DriverId&lt;/div&gt;&lt;div&gt;FirstName&lt;/div&gt;&lt;div&gt;LastName&lt;/div&gt;&lt;div&gt;Email&lt;/div&gt;&lt;div&gt;Phone&lt;/div&gt;&lt;div&gt;LicenseNumber&lt;/div&gt;&lt;div&gt;CreatedAt&lt;/div&gt;" style="align=left;strokeColor=none;fillColor=none;spacingLeft=4;fontSize=12;verticalAlign=top;resizable=0;rotatable=0;part=1;html=1;" vertex="1" parent="a66DYzXwycHHfx5bdSL--42">
          <mxGeometry y="50" width="190" height="110" as="geometry" />
        </mxCell>
        <mxCell id="a66DYzXwycHHfx5bdSL--44" value="Ratings" style="swimlane;childLayout=stackLayout;horizontal=1;startSize=50;horizontalStack=0;rounded=1;fontSize=14;fontStyle=0;strokeWidth=2;resizeParent=0;resizeLast=1;shadow=0;dashed=0;align=center;arcSize=4;whiteSpace=wrap;html=1;" vertex="1" parent="1">
          <mxGeometry x="-780" y="1770" width="160" height="130" as="geometry">
            <mxRectangle x="-820" y="22" width="90" height="50" as="alternateBounds" />
          </mxGeometry>
        </mxCell>
        <mxCell id="a66DYzXwycHHfx5bdSL--45" value="&lt;div&gt;RatingId&lt;/div&gt;&lt;div&gt;RideId (FK Rides)&lt;/div&gt;&lt;div&gt;PassangerRating&lt;/div&gt;&lt;div&gt;DriverRating&lt;/div&gt;&lt;div&gt;Feedback&lt;/div&gt;" style="align=left;strokeColor=none;fillColor=none;spacingLeft=4;fontSize=12;verticalAlign=top;resizable=0;rotatable=0;part=1;html=1;" vertex="1" parent="a66DYzXwycHHfx5bdSL--44">
          <mxGeometry y="50" width="160" height="80" as="geometry" />
        </mxCell>
        <mxCell id="a66DYzXwycHHfx5bdSL--46" value="DriverCars" style="swimlane;childLayout=stackLayout;horizontal=1;startSize=50;horizontalStack=0;rounded=1;fontSize=14;fontStyle=0;strokeWidth=2;resizeParent=0;resizeLast=1;shadow=0;dashed=0;align=center;arcSize=4;whiteSpace=wrap;html=1;" vertex="1" parent="1">
          <mxGeometry x="-1310" y="2000" width="160" height="120" as="geometry">
            <mxRectangle x="-820" y="22" width="90" height="50" as="alternateBounds" />
          </mxGeometry>
        </mxCell>
        <mxCell id="a66DYzXwycHHfx5bdSL--47" value="&lt;div&gt;DriverId (FK Drivers)&lt;/div&gt;&lt;div&gt;CarId (FK Cars)&lt;/div&gt;&lt;div&gt;AssigmentStart&lt;/div&gt;&lt;div&gt;AssigmentEnd&lt;/div&gt;" style="align=left;strokeColor=none;fillColor=none;spacingLeft=4;fontSize=12;verticalAlign=top;resizable=0;rotatable=0;part=1;html=1;" vertex="1" parent="a66DYzXwycHHfx5bdSL--46">
          <mxGeometry y="50" width="160" height="70" as="geometry" />
        </mxCell>
        <mxCell id="a66DYzXwycHHfx5bdSL--52" value="" style="endArrow=none;html=1;rounded=0;exitX=0.5;exitY=0;exitDx=0;exitDy=0;entryX=0.5;entryY=1;entryDx=0;entryDy=0;" edge="1" parent="1" source="a66DYzXwycHHfx5bdSL--32" target="a66DYzXwycHHfx5bdSL--36">
          <mxGeometry width="50" height="50" relative="1" as="geometry">
            <mxPoint x="-790" y="1430" as="sourcePoint" />
            <mxPoint x="-740" y="1380" as="targetPoint" />
          </mxGeometry>
        </mxCell>
        <mxCell id="a66DYzXwycHHfx5bdSL--55" value="" style="endArrow=none;html=1;rounded=0;exitX=1;exitY=0;exitDx=0;exitDy=0;entryX=0;entryY=0;entryDx=0;entryDy=0;" edge="1" parent="1" source="a66DYzXwycHHfx5bdSL--39" target="a66DYzXwycHHfx5bdSL--33">
          <mxGeometry width="50" height="50" relative="1" as="geometry">
            <mxPoint x="-790" y="1660" as="sourcePoint" />
            <mxPoint x="-1040" y="1600" as="targetPoint" />
          </mxGeometry>
        </mxCell>
        <mxCell id="a66DYzXwycHHfx5bdSL--56" value="" style="endArrow=none;html=1;rounded=0;entryX=0.141;entryY=1.01;entryDx=0;entryDy=0;entryPerimeter=0;exitX=0.5;exitY=0;exitDx=0;exitDy=0;" edge="1" parent="1" source="a66DYzXwycHHfx5bdSL--40" target="a66DYzXwycHHfx5bdSL--33">
          <mxGeometry width="50" height="50" relative="1" as="geometry">
            <mxPoint x="-1230" y="1750" as="sourcePoint" />
            <mxPoint x="-1010" y="1750" as="targetPoint" />
            <Array as="points">
              <mxPoint x="-1230" y="1750" />
              <mxPoint x="-1013" y="1750" />
            </Array>
          </mxGeometry>
        </mxCell>
        <mxCell id="a66DYzXwycHHfx5bdSL--57" value="" style="endArrow=none;html=1;rounded=0;entryX=0.5;entryY=1;entryDx=0;entryDy=0;exitX=0.5;exitY=0;exitDx=0;exitDy=0;" edge="1" parent="1" source="a66DYzXwycHHfx5bdSL--46" target="a66DYzXwycHHfx5bdSL--41">
          <mxGeometry width="50" height="50" relative="1" as="geometry">
            <mxPoint x="-1265" y="1990" as="sourcePoint" />
            <mxPoint x="-1215" y="1940" as="targetPoint" />
          </mxGeometry>
        </mxCell>
        <mxCell id="a66DYzXwycHHfx5bdSL--58" value="" style="endArrow=none;html=1;rounded=0;entryX=0.5;entryY=1;entryDx=0;entryDy=0;exitX=0.5;exitY=0;exitDx=0;exitDy=0;" edge="1" parent="1" source="a66DYzXwycHHfx5bdSL--42" target="a66DYzXwycHHfx5bdSL--33">
          <mxGeometry width="50" height="50" relative="1" as="geometry">
            <mxPoint x="-970" y="1950" as="sourcePoint" />
            <mxPoint x="-920" y="1900" as="targetPoint" />
          </mxGeometry>
        </mxCell>
        <mxCell id="a66DYzXwycHHfx5bdSL--59" value="" style="endArrow=none;html=1;rounded=0;entryX=0;entryY=0;entryDx=0;entryDy=0;exitX=1;exitY=0;exitDx=0;exitDy=0;" edge="1" parent="1" source="a66DYzXwycHHfx5bdSL--33" target="a66DYzXwycHHfx5bdSL--35">
          <mxGeometry width="50" height="50" relative="1" as="geometry">
            <mxPoint x="-970" y="1560" as="sourcePoint" />
            <mxPoint x="-920" y="1510" as="targetPoint" />
          </mxGeometry>
        </mxCell>
        <mxCell id="a66DYzXwycHHfx5bdSL--60" value="" style="endArrow=none;html=1;rounded=0;entryX=0.815;entryY=1.018;entryDx=0;entryDy=0;entryPerimeter=0;exitX=0.541;exitY=-0.022;exitDx=0;exitDy=0;exitPerimeter=0;" edge="1" parent="1" source="a66DYzXwycHHfx5bdSL--44" target="a66DYzXwycHHfx5bdSL--33">
          <mxGeometry width="50" height="50" relative="1" as="geometry">
            <mxPoint x="-960" y="1780" as="sourcePoint" />
            <mxPoint x="-910" y="1730" as="targetPoint" />
            <Array as="points">
              <mxPoint x="-693" y="1750" />
              <mxPoint x="-885" y="1750" />
            </Array>
          </mxGeometry>
        </mxCell>
        <mxCell id="a66DYzXwycHHfx5bdSL--62" value="" style="edgeStyle=entityRelationEdgeStyle;fontSize=12;html=1;endArrow=ERoneToMany;rounded=0;entryX=1;entryY=0.5;entryDx=0;entryDy=0;exitX=0.002;exitY=0.167;exitDx=0;exitDy=0;exitPerimeter=0;" edge="1" parent="1" source="a66DYzXwycHHfx5bdSL--42" target="a66DYzXwycHHfx5bdSL--46">
          <mxGeometry width="100" height="100" relative="1" as="geometry">
            <mxPoint x="-1140" y="2180" as="sourcePoint" />
            <mxPoint x="-1070" y="2060" as="targetPoint" />
            <Array as="points">
              <mxPoint x="-1090" y="1910" />
              <mxPoint x="-1070" y="1990" />
              <mxPoint x="-1070" y="1990" />
              <mxPoint x="-1120" y="2060" />
              <mxPoint x="-1100" y="2070" />
              <mxPoint x="-1090" y="1900" />
            </Array>
          </mxGeometry>
        </mxCell>
        <mxCell id="a66DYzXwycHHfx5bdSL--63" value="&lt;font style=&quot;font-size: 80px;&quot;&gt;Logical Diagram&lt;/font&gt;" style="text;html=1;align=center;verticalAlign=middle;whiteSpace=wrap;rounded=0;fontSize=120;" vertex="1" parent="1">
          <mxGeometry x="-1360" y="1009" width="830" height="160" as="geometry" />
        </mxCell>
        <mxCell id="a66DYzXwycHHfx5bdSL--64" value="&lt;font style=&quot;font-size: 80px;&quot;&gt;Conceptual Diagram&lt;/font&gt;" style="text;html=1;align=center;verticalAlign=middle;whiteSpace=wrap;rounded=0;fontSize=120;" vertex="1" parent="1">
          <mxGeometry x="-2540" y="1009" width="830" height="160" as="geometry" />
        </mxCell>
        <mxCell id="a66DYzXwycHHfx5bdSL--122" style="edgeStyle=orthogonalEdgeStyle;rounded=0;orthogonalLoop=1;jettySize=auto;html=1;entryX=0.5;entryY=0;entryDx=0;entryDy=0;strokeColor=#6C8EBF;" edge="1" parent="1" source="a66DYzXwycHHfx5bdSL--66" target="a66DYzXwycHHfx5bdSL--114">
          <mxGeometry relative="1" as="geometry" />
        </mxCell>
        <mxCell id="a66DYzXwycHHfx5bdSL--66" value="Ride" style="shape=ext;double=1;rounded=0;whiteSpace=wrap;html=1;fontSize=20;fillColor=#dae8fc;strokeColor=#6c8ebf;" vertex="1" parent="1">
          <mxGeometry x="-2210" y="1780" width="120" height="80" as="geometry" />
        </mxCell>
        <mxCell id="a66DYzXwycHHfx5bdSL--68" value="Start time&lt;span style=&quot;white-space: pre;&quot;&gt;&#x9;&lt;/span&gt;" style="ellipse;whiteSpace=wrap;html=1;fillColor=#dae8fc;strokeColor=#6c8ebf;" vertex="1" parent="1">
          <mxGeometry x="-2050" y="1756" width="100" height="29" as="geometry" />
        </mxCell>
        <mxCell id="a66DYzXwycHHfx5bdSL--69" value="End time" style="ellipse;whiteSpace=wrap;html=1;fillColor=#dae8fc;strokeColor=#6c8ebf;" vertex="1" parent="1">
          <mxGeometry x="-2046" y="1805" width="100" height="29" as="geometry" />
        </mxCell>
        <mxCell id="a66DYzXwycHHfx5bdSL--70" value="Faret" style="ellipse;whiteSpace=wrap;html=1;fillColor=#dae8fc;strokeColor=#6c8ebf;" vertex="1" parent="1">
          <mxGeometry x="-2050" y="1855" width="100" height="29" as="geometry" />
        </mxCell>
        <mxCell id="a66DYzXwycHHfx5bdSL--72" value="Payment" style="shape=ext;double=1;rounded=0;whiteSpace=wrap;html=1;fontSize=20;fillColor=#dae8fc;strokeColor=#6c8ebf;" vertex="1" parent="1">
          <mxGeometry x="-2209.5" y="1600" width="120" height="80" as="geometry" />
        </mxCell>
        <mxCell id="a66DYzXwycHHfx5bdSL--73" value="Payment time" style="ellipse;whiteSpace=wrap;html=1;fillColor=#dae8fc;strokeColor=#6c8ebf;" vertex="1" parent="1">
          <mxGeometry x="-2070.5" y="1530" width="100" height="29" as="geometry" />
        </mxCell>
        <mxCell id="a66DYzXwycHHfx5bdSL--74" value="Amount" style="ellipse;whiteSpace=wrap;html=1;fillColor=#dae8fc;strokeColor=#6c8ebf;" vertex="1" parent="1">
          <mxGeometry x="-2329.5" y="1530" width="100" height="29" as="geometry" />
        </mxCell>
        <mxCell id="a66DYzXwycHHfx5bdSL--75" value="Payment method" style="ellipse;whiteSpace=wrap;html=1;fillColor=#dae8fc;strokeColor=#6c8ebf;" vertex="1" parent="1">
          <mxGeometry x="-2203.5" y="1530" width="100" height="29" as="geometry" />
        </mxCell>
        <mxCell id="a66DYzXwycHHfx5bdSL--78" value="" style="endArrow=none;html=1;rounded=0;exitX=0.463;exitY=-0.009;exitDx=0;exitDy=0;exitPerimeter=0;entryX=0.5;entryY=1;entryDx=0;entryDy=0;strokeColor=#6C8EBF;" edge="1" parent="1" source="a66DYzXwycHHfx5bdSL--72" target="a66DYzXwycHHfx5bdSL--75">
          <mxGeometry width="50" height="50" relative="1" as="geometry">
            <mxPoint x="-2150" y="1579" as="sourcePoint" />
            <mxPoint x="-2100" y="1529" as="targetPoint" />
          </mxGeometry>
        </mxCell>
        <mxCell id="a66DYzXwycHHfx5bdSL--79" value="" style="endArrow=none;html=1;rounded=0;exitX=0.75;exitY=0;exitDx=0;exitDy=0;entryX=0.5;entryY=1;entryDx=0;entryDy=0;strokeColor=#6C8EBF;" edge="1" parent="1" source="a66DYzXwycHHfx5bdSL--72" target="a66DYzXwycHHfx5bdSL--73">
          <mxGeometry width="50" height="50" relative="1" as="geometry">
            <mxPoint x="-2144" y="1609" as="sourcePoint" />
            <mxPoint x="-2143" y="1539" as="targetPoint" />
            <Array as="points">
              <mxPoint x="-2120" y="1580" />
              <mxPoint x="-2020" y="1580" />
            </Array>
          </mxGeometry>
        </mxCell>
        <mxCell id="a66DYzXwycHHfx5bdSL--80" value="" style="endArrow=none;html=1;rounded=0;exitX=0.25;exitY=0;exitDx=0;exitDy=0;entryX=0.5;entryY=1;entryDx=0;entryDy=0;strokeColor=#6C8EBF;" edge="1" parent="1" source="a66DYzXwycHHfx5bdSL--72" target="a66DYzXwycHHfx5bdSL--74">
          <mxGeometry width="50" height="50" relative="1" as="geometry">
            <mxPoint x="-2144" y="1609" as="sourcePoint" />
            <mxPoint x="-2143" y="1539" as="targetPoint" />
            <Array as="points">
              <mxPoint x="-2180" y="1580" />
              <mxPoint x="-2279" y="1580" />
            </Array>
          </mxGeometry>
        </mxCell>
        <mxCell id="a66DYzXwycHHfx5bdSL--81" value="" style="endArrow=classic;html=1;rounded=0;exitX=0.5;exitY=0;exitDx=0;exitDy=0;entryX=0.5;entryY=1;entryDx=0;entryDy=0;strokeColor=#6C8EBF;" edge="1" parent="1" source="a66DYzXwycHHfx5bdSL--66" target="a66DYzXwycHHfx5bdSL--72">
          <mxGeometry width="50" height="50" relative="1" as="geometry">
            <mxPoint x="-2070" y="1770" as="sourcePoint" />
            <mxPoint x="-2020" y="1720" as="targetPoint" />
          </mxGeometry>
        </mxCell>
        <mxCell id="a66DYzXwycHHfx5bdSL--82" value="trigger" style="text;html=1;align=center;verticalAlign=middle;whiteSpace=wrap;rounded=0;" vertex="1" parent="1">
          <mxGeometry x="-2150" y="1730" width="40" height="10" as="geometry" />
        </mxCell>
        <mxCell id="a66DYzXwycHHfx5bdSL--85" value="" style="endArrow=none;html=1;rounded=0;exitX=0;exitY=0.5;exitDx=0;exitDy=0;entryX=1;entryY=0.5;entryDx=0;entryDy=0;strokeColor=#6C8EBF;" edge="1" parent="1" source="a66DYzXwycHHfx5bdSL--69" target="a66DYzXwycHHfx5bdSL--66">
          <mxGeometry width="50" height="50" relative="1" as="geometry">
            <mxPoint x="-2068" y="1904.5" as="sourcePoint" />
            <mxPoint x="-2067" y="1834.5" as="targetPoint" />
          </mxGeometry>
        </mxCell>
        <mxCell id="a66DYzXwycHHfx5bdSL--86" value="" style="endArrow=none;html=1;rounded=0;exitX=0;exitY=0.5;exitDx=0;exitDy=0;entryX=1;entryY=0.25;entryDx=0;entryDy=0;strokeColor=#6C8EBF;" edge="1" parent="1" source="a66DYzXwycHHfx5bdSL--68" target="a66DYzXwycHHfx5bdSL--66">
          <mxGeometry width="50" height="50" relative="1" as="geometry">
            <mxPoint x="-2040" y="1800" as="sourcePoint" />
            <mxPoint x="-2084" y="1801" as="targetPoint" />
            <Array as="points">
              <mxPoint x="-2050" y="1800" />
            </Array>
          </mxGeometry>
        </mxCell>
        <mxCell id="a66DYzXwycHHfx5bdSL--87" value="" style="endArrow=none;html=1;rounded=0;exitX=0;exitY=0.5;exitDx=0;exitDy=0;entryX=1.001;entryY=0.837;entryDx=0;entryDy=0;strokeColor=#6C8EBF;entryPerimeter=0;" edge="1" parent="1" source="a66DYzXwycHHfx5bdSL--70" target="a66DYzXwycHHfx5bdSL--66">
          <mxGeometry width="50" height="50" relative="1" as="geometry">
            <mxPoint x="-2026" y="1839" as="sourcePoint" />
            <mxPoint x="-2070" y="1840" as="targetPoint" />
            <Array as="points">
              <mxPoint x="-2050" y="1847" />
            </Array>
          </mxGeometry>
        </mxCell>
        <mxCell id="a66DYzXwycHHfx5bdSL--88" value="Location" style="shape=ext;double=1;rounded=0;whiteSpace=wrap;html=1;fontSize=20;fillColor=#dae8fc;strokeColor=#6c8ebf;" vertex="1" parent="1">
          <mxGeometry x="-2449" y="1780" width="120" height="80" as="geometry" />
        </mxCell>
        <mxCell id="a66DYzXwycHHfx5bdSL--89" value="" style="endArrow=classic;html=1;rounded=0;entryX=1;entryY=0.25;entryDx=0;entryDy=0;strokeColor=#6C8EBF;" edge="1" parent="1" target="a66DYzXwycHHfx5bdSL--88">
          <mxGeometry width="50" height="50" relative="1" as="geometry">
            <mxPoint x="-2212" y="1800" as="sourcePoint" />
            <mxPoint x="-2244.5" y="1704" as="targetPoint" />
          </mxGeometry>
        </mxCell>
        <mxCell id="a66DYzXwycHHfx5bdSL--90" value="" style="endArrow=classic;html=1;rounded=0;entryX=1;entryY=0.75;entryDx=0;entryDy=0;strokeColor=#6C8EBF;exitX=0;exitY=0.75;exitDx=0;exitDy=0;" edge="1" parent="1" source="a66DYzXwycHHfx5bdSL--66" target="a66DYzXwycHHfx5bdSL--88">
          <mxGeometry width="50" height="50" relative="1" as="geometry">
            <mxPoint x="-2215" y="1834" as="sourcePoint" />
            <mxPoint x="-2332" y="1834" as="targetPoint" />
          </mxGeometry>
        </mxCell>
        <mxCell id="a66DYzXwycHHfx5bdSL--91" value="has" style="text;html=1;align=center;verticalAlign=middle;whiteSpace=wrap;rounded=0;" vertex="1" parent="1">
          <mxGeometry x="-2290" y="1785" width="40" height="10" as="geometry" />
        </mxCell>
        <mxCell id="a66DYzXwycHHfx5bdSL--92" value="has" style="text;html=1;align=center;verticalAlign=middle;whiteSpace=wrap;rounded=0;" vertex="1" parent="1">
          <mxGeometry x="-2290" y="1824" width="40" height="10" as="geometry" />
        </mxCell>
        <mxCell id="a66DYzXwycHHfx5bdSL--94" value="Address" style="ellipse;whiteSpace=wrap;html=1;fillColor=#dae8fc;strokeColor=#6c8ebf;" vertex="1" parent="1">
          <mxGeometry x="-2370.5" y="1701" width="100" height="29" as="geometry" />
        </mxCell>
        <mxCell id="a66DYzXwycHHfx5bdSL--95" value="Latitude" style="ellipse;whiteSpace=wrap;html=1;fillColor=#dae8fc;strokeColor=#6c8ebf;" vertex="1" parent="1">
          <mxGeometry x="-2510" y="1699" width="100" height="29" as="geometry" />
        </mxCell>
        <mxCell id="a66DYzXwycHHfx5bdSL--96" value="Longitude" style="ellipse;whiteSpace=wrap;html=1;fillColor=#dae8fc;strokeColor=#6c8ebf;" vertex="1" parent="1">
          <mxGeometry x="-2439" y="1670" width="100" height="29" as="geometry" />
        </mxCell>
        <mxCell id="a66DYzXwycHHfx5bdSL--98" value="" style="endArrow=none;html=1;rounded=0;exitX=0.75;exitY=0;exitDx=0;exitDy=0;entryX=0.5;entryY=1;entryDx=0;entryDy=0;strokeColor=#6C8EBF;" edge="1" parent="1" source="a66DYzXwycHHfx5bdSL--88" target="a66DYzXwycHHfx5bdSL--94">
          <mxGeometry width="50" height="50" relative="1" as="geometry">
            <mxPoint x="-2360" y="1820" as="sourcePoint" />
            <mxPoint x="-2359" y="1750" as="targetPoint" />
            <Array as="points">
              <mxPoint x="-2360" y="1760" />
              <mxPoint x="-2320" y="1760" />
            </Array>
          </mxGeometry>
        </mxCell>
        <mxCell id="a66DYzXwycHHfx5bdSL--100" value="" style="endArrow=none;html=1;rounded=0;entryX=0.5;entryY=1;entryDx=0;entryDy=0;strokeColor=#6C8EBF;exitX=0.5;exitY=0;exitDx=0;exitDy=0;" edge="1" parent="1" source="a66DYzXwycHHfx5bdSL--88" target="a66DYzXwycHHfx5bdSL--96">
          <mxGeometry width="50" height="50" relative="1" as="geometry">
            <mxPoint x="-2420" y="1770" as="sourcePoint" />
            <mxPoint x="-2420" y="1689" as="targetPoint" />
          </mxGeometry>
        </mxCell>
        <mxCell id="a66DYzXwycHHfx5bdSL--101" value="" style="endArrow=none;html=1;rounded=0;entryX=0.5;entryY=1;entryDx=0;entryDy=0;strokeColor=#6C8EBF;exitX=0.25;exitY=0;exitDx=0;exitDy=0;" edge="1" parent="1" source="a66DYzXwycHHfx5bdSL--88" target="a66DYzXwycHHfx5bdSL--95">
          <mxGeometry width="50" height="50" relative="1" as="geometry">
            <mxPoint x="-2410" y="1780" as="sourcePoint" />
            <mxPoint x="-2410" y="1699" as="targetPoint" />
            <Array as="points">
              <mxPoint x="-2419" y="1760" />
              <mxPoint x="-2460" y="1760" />
            </Array>
          </mxGeometry>
        </mxCell>
        <mxCell id="a66DYzXwycHHfx5bdSL--102" value="Car" style="shape=ext;double=1;rounded=0;whiteSpace=wrap;html=1;fontSize=20;fillColor=#dae8fc;strokeColor=#6c8ebf;" vertex="1" parent="1">
          <mxGeometry x="-2540" y="1935" width="120" height="80" as="geometry" />
        </mxCell>
        <mxCell id="a66DYzXwycHHfx5bdSL--120" style="edgeStyle=orthogonalEdgeStyle;rounded=0;orthogonalLoop=1;jettySize=auto;html=1;entryX=0;entryY=0.5;entryDx=0;entryDy=0;strokeColor=#6C8EBF;" edge="1" parent="1" source="a66DYzXwycHHfx5bdSL--103" target="a66DYzXwycHHfx5bdSL--114">
          <mxGeometry relative="1" as="geometry" />
        </mxCell>
        <mxCell id="a66DYzXwycHHfx5bdSL--103" value="Driver" style="shape=ext;double=1;rounded=0;whiteSpace=wrap;html=1;fontSize=20;fillColor=#dae8fc;strokeColor=#6c8ebf;" vertex="1" parent="1">
          <mxGeometry x="-2280" y="1935" width="120" height="80" as="geometry" />
        </mxCell>
        <mxCell id="a66DYzXwycHHfx5bdSL--105" value="" style="endArrow=classic;html=1;rounded=0;entryX=1;entryY=0.5;entryDx=0;entryDy=0;strokeColor=#6C8EBF;exitX=0;exitY=0.5;exitDx=0;exitDy=0;" edge="1" parent="1" source="a66DYzXwycHHfx5bdSL--103" target="a66DYzXwycHHfx5bdSL--102">
          <mxGeometry width="50" height="50" relative="1" as="geometry">
            <mxPoint x="-2229" y="1960" as="sourcePoint" />
            <mxPoint x="-2348" y="1960" as="targetPoint" />
          </mxGeometry>
        </mxCell>
        <mxCell id="a66DYzXwycHHfx5bdSL--106" value="" style="endArrow=classic;html=1;rounded=0;entryX=0.25;entryY=1;entryDx=0;entryDy=0;strokeColor=#6C8EBF;exitX=0.5;exitY=0;exitDx=0;exitDy=0;" edge="1" parent="1" source="a66DYzXwycHHfx5bdSL--103" target="a66DYzXwycHHfx5bdSL--66">
          <mxGeometry width="50" height="50" relative="1" as="geometry">
            <mxPoint x="-2199" y="1970" as="sourcePoint" />
            <mxPoint x="-2319" y="1970" as="targetPoint" />
            <Array as="points">
              <mxPoint x="-2220" y="1900" />
              <mxPoint x="-2180" y="1900" />
            </Array>
          </mxGeometry>
        </mxCell>
        <mxCell id="a66DYzXwycHHfx5bdSL--107" value="creates" style="text;html=1;align=center;verticalAlign=middle;whiteSpace=wrap;rounded=0;" vertex="1" parent="1">
          <mxGeometry x="-2016" y="1940" width="40" height="10" as="geometry" />
        </mxCell>
        <mxCell id="a66DYzXwycHHfx5bdSL--108" value="has" style="text;html=1;align=center;verticalAlign=middle;whiteSpace=wrap;rounded=0;" vertex="1" parent="1">
          <mxGeometry x="-2370.5" y="1960" width="40" height="10" as="geometry" />
        </mxCell>
        <mxCell id="a66DYzXwycHHfx5bdSL--117" style="edgeStyle=orthogonalEdgeStyle;rounded=0;orthogonalLoop=1;jettySize=auto;html=1;entryX=1;entryY=0.5;entryDx=0;entryDy=0;strokeColor=#6C8EBF;" edge="1" parent="1" source="a66DYzXwycHHfx5bdSL--110" target="a66DYzXwycHHfx5bdSL--114">
          <mxGeometry relative="1" as="geometry" />
        </mxCell>
        <mxCell id="a66DYzXwycHHfx5bdSL--110" value="Passanger" style="shape=ext;double=1;rounded=0;whiteSpace=wrap;html=1;fontSize=20;fillColor=#dae8fc;strokeColor=#6c8ebf;" vertex="1" parent="1">
          <mxGeometry x="-1980" y="2000" width="120" height="80" as="geometry" />
        </mxCell>
        <mxCell id="a66DYzXwycHHfx5bdSL--111" value="" style="endArrow=classic;html=1;rounded=0;entryX=0.75;entryY=1;entryDx=0;entryDy=0;strokeColor=#6C8EBF;exitX=0.5;exitY=0;exitDx=0;exitDy=0;" edge="1" parent="1" source="a66DYzXwycHHfx5bdSL--110" target="a66DYzXwycHHfx5bdSL--66">
          <mxGeometry width="50" height="50" relative="1" as="geometry">
            <mxPoint x="-2180" y="1930" as="sourcePoint" />
            <mxPoint x="-2140" y="1870" as="targetPoint" />
            <Array as="points">
              <mxPoint x="-1920" y="1960" />
              <mxPoint x="-2080" y="1960" />
              <mxPoint x="-2080" y="1900" />
              <mxPoint x="-2120" y="1900" />
            </Array>
          </mxGeometry>
        </mxCell>
        <mxCell id="a66DYzXwycHHfx5bdSL--113" value="starts" style="text;html=1;align=center;verticalAlign=middle;whiteSpace=wrap;rounded=0;" vertex="1" parent="1">
          <mxGeometry x="-2257.5" y="1900" width="40" height="10" as="geometry" />
        </mxCell>
        <mxCell id="a66DYzXwycHHfx5bdSL--114" value="Rating" style="shape=ext;double=1;rounded=0;whiteSpace=wrap;html=1;fontSize=20;fillColor=#dae8fc;strokeColor=#6c8ebf;" vertex="1" parent="1">
          <mxGeometry x="-2177.5" y="2080" width="120" height="80" as="geometry" />
        </mxCell>
        <mxCell id="a66DYzXwycHHfx5bdSL--116" value="trigger" style="text;html=1;align=center;verticalAlign=middle;whiteSpace=wrap;rounded=0;" vertex="1" parent="1">
          <mxGeometry x="-2116.5" y="1990" width="40" height="10" as="geometry" />
        </mxCell>
        <mxCell id="a66DYzXwycHHfx5bdSL--121" value="fill" style="text;html=1;align=center;verticalAlign=middle;whiteSpace=wrap;rounded=0;" vertex="1" parent="1">
          <mxGeometry x="-2250" y="2070" width="40" height="10" as="geometry" />
        </mxCell>
        <mxCell id="a66DYzXwycHHfx5bdSL--123" value="fill" style="text;html=1;align=center;verticalAlign=middle;whiteSpace=wrap;rounded=0;" vertex="1" parent="1">
          <mxGeometry x="-2026.5" y="2070" width="40" height="10" as="geometry" />
        </mxCell>
        <mxCell id="a66DYzXwycHHfx5bdSL--124" value="Model" style="ellipse;whiteSpace=wrap;html=1;fillColor=#dae8fc;strokeColor=#6c8ebf;" vertex="1" parent="1">
          <mxGeometry x="-2640" y="1860" width="100" height="29" as="geometry" />
        </mxCell>
        <mxCell id="a66DYzXwycHHfx5bdSL--125" value="Make" style="ellipse;whiteSpace=wrap;html=1;fillColor=#dae8fc;strokeColor=#6c8ebf;" vertex="1" parent="1">
          <mxGeometry x="-2530" y="1860" width="100" height="29" as="geometry" />
        </mxCell>
        <mxCell id="a66DYzXwycHHfx5bdSL--126" value="Year" style="ellipse;whiteSpace=wrap;html=1;fillColor=#dae8fc;strokeColor=#6c8ebf;" vertex="1" parent="1">
          <mxGeometry x="-2670" y="1921" width="100" height="29" as="geometry" />
        </mxCell>
        <mxCell id="a66DYzXwycHHfx5bdSL--127" value="License plate" style="ellipse;whiteSpace=wrap;html=1;fillColor=#dae8fc;strokeColor=#6c8ebf;" vertex="1" parent="1">
          <mxGeometry x="-2670" y="1960" width="100" height="29" as="geometry" />
        </mxCell>
        <mxCell id="a66DYzXwycHHfx5bdSL--128" value="Color" style="ellipse;whiteSpace=wrap;html=1;fillColor=#dae8fc;strokeColor=#6c8ebf;" vertex="1" parent="1">
          <mxGeometry x="-2670" y="2000" width="100" height="29" as="geometry" />
        </mxCell>
        <mxCell id="a66DYzXwycHHfx5bdSL--129" value="" style="endArrow=none;html=1;rounded=0;entryX=0.5;entryY=0;entryDx=0;entryDy=0;exitX=0.5;exitY=1;exitDx=0;exitDy=0;strokeColor=#6C8EBF;" edge="1" parent="1" source="a66DYzXwycHHfx5bdSL--125" target="a66DYzXwycHHfx5bdSL--102">
          <mxGeometry width="50" height="50" relative="1" as="geometry">
            <mxPoint x="-2410" y="1980" as="sourcePoint" />
            <mxPoint x="-2360" y="1930" as="targetPoint" />
          </mxGeometry>
        </mxCell>
        <mxCell id="a66DYzXwycHHfx5bdSL--130" value="" style="endArrow=none;html=1;rounded=0;entryX=0.25;entryY=0;entryDx=0;entryDy=0;exitX=0.5;exitY=1;exitDx=0;exitDy=0;strokeColor=#6C8EBF;" edge="1" parent="1" source="a66DYzXwycHHfx5bdSL--124" target="a66DYzXwycHHfx5bdSL--102">
          <mxGeometry width="50" height="50" relative="1" as="geometry">
            <mxPoint x="-2470" y="1899" as="sourcePoint" />
            <mxPoint x="-2470" y="1945" as="targetPoint" />
            <Array as="points">
              <mxPoint x="-2590" y="1910" />
              <mxPoint x="-2510" y="1910" />
            </Array>
          </mxGeometry>
        </mxCell>
        <mxCell id="a66DYzXwycHHfx5bdSL--131" value="" style="endArrow=none;html=1;rounded=0;entryX=1;entryY=0.5;entryDx=0;entryDy=0;exitX=0;exitY=0.5;exitDx=0;exitDy=0;strokeColor=#6C8EBF;" edge="1" parent="1" source="a66DYzXwycHHfx5bdSL--102" target="a66DYzXwycHHfx5bdSL--127">
          <mxGeometry width="50" height="50" relative="1" as="geometry">
            <mxPoint x="-2470" y="1899" as="sourcePoint" />
            <mxPoint x="-2470" y="1945" as="targetPoint" />
          </mxGeometry>
        </mxCell>
        <mxCell id="a66DYzXwycHHfx5bdSL--132" value="" style="endArrow=none;html=1;rounded=0;entryX=1;entryY=0.5;entryDx=0;entryDy=0;exitX=0;exitY=0.25;exitDx=0;exitDy=0;strokeColor=#6C8EBF;" edge="1" parent="1" source="a66DYzXwycHHfx5bdSL--102" target="a66DYzXwycHHfx5bdSL--126">
          <mxGeometry width="50" height="50" relative="1" as="geometry">
            <mxPoint x="-2530" y="1985" as="sourcePoint" />
            <mxPoint x="-2560" y="1984" as="targetPoint" />
            <Array as="points">
              <mxPoint x="-2570" y="1955" />
            </Array>
          </mxGeometry>
        </mxCell>
        <mxCell id="a66DYzXwycHHfx5bdSL--133" value="" style="endArrow=none;html=1;rounded=0;entryX=1;entryY=0.5;entryDx=0;entryDy=0;exitX=0;exitY=0.75;exitDx=0;exitDy=0;strokeColor=#6C8EBF;" edge="1" parent="1" source="a66DYzXwycHHfx5bdSL--102" target="a66DYzXwycHHfx5bdSL--128">
          <mxGeometry width="50" height="50" relative="1" as="geometry">
            <mxPoint x="-2520" y="1995" as="sourcePoint" />
            <mxPoint x="-2550" y="1994" as="targetPoint" />
            <Array as="points">
              <mxPoint x="-2570" y="1995" />
            </Array>
          </mxGeometry>
        </mxCell>
        <mxCell id="a66DYzXwycHHfx5bdSL--134" value="Created at" style="ellipse;whiteSpace=wrap;html=1;fillColor=#dae8fc;strokeColor=#6c8ebf;" vertex="1" parent="1">
          <mxGeometry x="-1910" y="2100" width="100" height="29" as="geometry" />
        </mxCell>
        <mxCell id="a66DYzXwycHHfx5bdSL--135" value="Email" style="ellipse;whiteSpace=wrap;html=1;fillColor=#dae8fc;strokeColor=#6c8ebf;" vertex="1" parent="1">
          <mxGeometry x="-1836" y="2025.5" width="100" height="29" as="geometry" />
        </mxCell>
        <mxCell id="a66DYzXwycHHfx5bdSL--136" value="First name" style="ellipse;whiteSpace=wrap;html=1;fillColor=#dae8fc;strokeColor=#6c8ebf;" vertex="1" parent="1">
          <mxGeometry x="-1910" y="1957" width="100" height="29" as="geometry" />
        </mxCell>
        <mxCell id="a66DYzXwycHHfx5bdSL--137" value="Last name" style="ellipse;whiteSpace=wrap;html=1;fillColor=#dae8fc;strokeColor=#6c8ebf;" vertex="1" parent="1">
          <mxGeometry x="-1836" y="1986" width="100" height="29" as="geometry" />
        </mxCell>
        <mxCell id="a66DYzXwycHHfx5bdSL--138" value="Phone" style="ellipse;whiteSpace=wrap;html=1;fillColor=#dae8fc;strokeColor=#6c8ebf;" vertex="1" parent="1">
          <mxGeometry x="-1836" y="2070" width="100" height="29" as="geometry" />
        </mxCell>
        <mxCell id="a66DYzXwycHHfx5bdSL--140" value="" style="endArrow=none;html=1;rounded=0;entryX=0.75;entryY=0;entryDx=0;entryDy=0;exitX=0.5;exitY=1;exitDx=0;exitDy=0;strokeColor=#6C8EBF;" edge="1" parent="1" source="a66DYzXwycHHfx5bdSL--136" target="a66DYzXwycHHfx5bdSL--110">
          <mxGeometry width="50" height="50" relative="1" as="geometry">
            <mxPoint x="-1910" y="1945" as="sourcePoint" />
            <mxPoint x="-1860" y="2000" as="targetPoint" />
            <Array as="points">
              <mxPoint x="-1860" y="1990" />
              <mxPoint x="-1890" y="1990" />
            </Array>
          </mxGeometry>
        </mxCell>
        <mxCell id="a66DYzXwycHHfx5bdSL--141" value="" style="endArrow=none;html=1;rounded=0;entryX=0.5;entryY=0;entryDx=0;entryDy=0;exitX=0.75;exitY=1;exitDx=0;exitDy=0;strokeColor=#6C8EBF;" edge="1" parent="1" source="a66DYzXwycHHfx5bdSL--110" target="a66DYzXwycHHfx5bdSL--134">
          <mxGeometry width="50" height="50" relative="1" as="geometry">
            <mxPoint x="-1900" y="1955" as="sourcePoint" />
            <mxPoint x="-1850" y="2010" as="targetPoint" />
            <Array as="points">
              <mxPoint x="-1890" y="2090" />
              <mxPoint x="-1860" y="2090" />
            </Array>
          </mxGeometry>
        </mxCell>
        <mxCell id="a66DYzXwycHHfx5bdSL--142" value="" style="endArrow=none;html=1;rounded=0;entryX=1;entryY=0.5;entryDx=0;entryDy=0;strokeColor=#6C8EBF;exitX=0;exitY=0.5;exitDx=0;exitDy=0;" edge="1" parent="1" source="a66DYzXwycHHfx5bdSL--135" target="a66DYzXwycHHfx5bdSL--110">
          <mxGeometry width="50" height="50" relative="1" as="geometry">
            <mxPoint x="-1840" y="2040" as="sourcePoint" />
            <mxPoint x="-1840" y="2020" as="targetPoint" />
          </mxGeometry>
        </mxCell>
        <mxCell id="a66DYzXwycHHfx5bdSL--143" value="" style="endArrow=none;html=1;rounded=0;exitX=0;exitY=0.5;exitDx=0;exitDy=0;strokeColor=#6C8EBF;entryX=1;entryY=0.25;entryDx=0;entryDy=0;" edge="1" parent="1" source="a66DYzXwycHHfx5bdSL--137" target="a66DYzXwycHHfx5bdSL--110">
          <mxGeometry width="50" height="50" relative="1" as="geometry">
            <mxPoint x="-1880" y="1975" as="sourcePoint" />
            <mxPoint x="-1850" y="2020" as="targetPoint" />
            <Array as="points">
              <mxPoint x="-1850" y="2000" />
              <mxPoint x="-1850" y="2020" />
            </Array>
          </mxGeometry>
        </mxCell>
        <mxCell id="a66DYzXwycHHfx5bdSL--144" value="" style="endArrow=none;html=1;rounded=0;entryX=1;entryY=0.75;entryDx=0;entryDy=0;exitX=0;exitY=0.5;exitDx=0;exitDy=0;strokeColor=#6C8EBF;" edge="1" parent="1" source="a66DYzXwycHHfx5bdSL--138" target="a66DYzXwycHHfx5bdSL--110">
          <mxGeometry width="50" height="50" relative="1" as="geometry">
            <mxPoint x="-1870" y="1985" as="sourcePoint" />
            <mxPoint x="-1820" y="2040" as="targetPoint" />
            <Array as="points">
              <mxPoint x="-1850" y="2080" />
              <mxPoint x="-1850" y="2060" />
            </Array>
          </mxGeometry>
        </mxCell>
        <mxCell id="a66DYzXwycHHfx5bdSL--145" value="Feedback" style="ellipse;whiteSpace=wrap;html=1;fillColor=#dae8fc;strokeColor=#6c8ebf;" vertex="1" parent="1">
          <mxGeometry x="-2167.5" y="2190" width="100" height="29" as="geometry" />
        </mxCell>
        <mxCell id="a66DYzXwycHHfx5bdSL--146" value="Passanger rating" style="ellipse;whiteSpace=wrap;html=1;fillColor=#dae8fc;strokeColor=#6c8ebf;" vertex="1" parent="1">
          <mxGeometry x="-2060" y="2170" width="100" height="29" as="geometry" />
        </mxCell>
        <mxCell id="a66DYzXwycHHfx5bdSL--147" value="Driver rating" style="ellipse;whiteSpace=wrap;html=1;fillColor=#dae8fc;strokeColor=#6c8ebf;" vertex="1" parent="1">
          <mxGeometry x="-2277.5" y="2170" width="100" height="29" as="geometry" />
        </mxCell>
        <mxCell id="a66DYzXwycHHfx5bdSL--148" value="" style="endArrow=none;html=1;rounded=0;entryX=0.5;entryY=1;entryDx=0;entryDy=0;strokeColor=#6C8EBF;exitX=0.5;exitY=0;exitDx=0;exitDy=0;" edge="1" parent="1" source="a66DYzXwycHHfx5bdSL--145" target="a66DYzXwycHHfx5bdSL--114">
          <mxGeometry width="50" height="50" relative="1" as="geometry">
            <mxPoint x="-1826" y="2050" as="sourcePoint" />
            <mxPoint x="-1850" y="2050" as="targetPoint" />
          </mxGeometry>
        </mxCell>
        <mxCell id="a66DYzXwycHHfx5bdSL--149" value="" style="endArrow=none;html=1;rounded=0;entryX=0.75;entryY=1;entryDx=0;entryDy=0;strokeColor=#6C8EBF;exitX=0;exitY=0.5;exitDx=0;exitDy=0;" edge="1" parent="1" source="a66DYzXwycHHfx5bdSL--146" target="a66DYzXwycHHfx5bdSL--114">
          <mxGeometry width="50" height="50" relative="1" as="geometry">
            <mxPoint x="-2107" y="2200" as="sourcePoint" />
            <mxPoint x="-2107" y="2170" as="targetPoint" />
            <Array as="points">
              <mxPoint x="-2087" y="2184" />
            </Array>
          </mxGeometry>
        </mxCell>
        <mxCell id="a66DYzXwycHHfx5bdSL--150" value="" style="endArrow=none;html=1;rounded=0;entryX=1;entryY=0.5;entryDx=0;entryDy=0;strokeColor=#6C8EBF;exitX=0.25;exitY=1;exitDx=0;exitDy=0;" edge="1" parent="1" source="a66DYzXwycHHfx5bdSL--114" target="a66DYzXwycHHfx5bdSL--147">
          <mxGeometry width="50" height="50" relative="1" as="geometry">
            <mxPoint x="-2097" y="2210" as="sourcePoint" />
            <mxPoint x="-2097" y="2180" as="targetPoint" />
            <Array as="points">
              <mxPoint x="-2147" y="2184" />
            </Array>
          </mxGeometry>
        </mxCell>
        <mxCell id="a66DYzXwycHHfx5bdSL--151" value="First name" style="ellipse;whiteSpace=wrap;html=1;fillColor=#dae8fc;strokeColor=#6c8ebf;" vertex="1" parent="1">
          <mxGeometry x="-2320" y="1860" width="100" height="29" as="geometry" />
        </mxCell>
        <mxCell id="a66DYzXwycHHfx5bdSL--152" value="Last name" style="ellipse;whiteSpace=wrap;html=1;fillColor=#dae8fc;strokeColor=#6c8ebf;" vertex="1" parent="1">
          <mxGeometry x="-2417.5" y="1891" width="100" height="29" as="geometry" />
        </mxCell>
        <mxCell id="a66DYzXwycHHfx5bdSL--153" value="Email" style="ellipse;whiteSpace=wrap;html=1;fillColor=#dae8fc;strokeColor=#6c8ebf;" vertex="1" parent="1">
          <mxGeometry x="-2410" y="2000" width="100" height="29" as="geometry" />
        </mxCell>
        <mxCell id="a66DYzXwycHHfx5bdSL--154" value="Phone" style="ellipse;whiteSpace=wrap;html=1;fillColor=#dae8fc;strokeColor=#6c8ebf;" vertex="1" parent="1">
          <mxGeometry x="-2410" y="2045.5" width="100" height="29" as="geometry" />
        </mxCell>
        <mxCell id="a66DYzXwycHHfx5bdSL--155" value="Created at" style="ellipse;whiteSpace=wrap;html=1;fillColor=#dae8fc;strokeColor=#6c8ebf;" vertex="1" parent="1">
          <mxGeometry x="-2320" y="2129" width="100" height="29" as="geometry" />
        </mxCell>
        <mxCell id="a66DYzXwycHHfx5bdSL--156" value="License number" style="ellipse;whiteSpace=wrap;html=1;fillColor=#dae8fc;strokeColor=#6c8ebf;" vertex="1" parent="1">
          <mxGeometry x="-2410" y="2091" width="100" height="29" as="geometry" />
        </mxCell>
        <mxCell id="a66DYzXwycHHfx5bdSL--157" value="" style="endArrow=none;html=1;rounded=0;entryX=0.5;entryY=0;entryDx=0;entryDy=0;strokeColor=#6C8EBF;exitX=0.25;exitY=1;exitDx=0;exitDy=0;" edge="1" parent="1" source="a66DYzXwycHHfx5bdSL--103" target="a66DYzXwycHHfx5bdSL--155">
          <mxGeometry width="50" height="50" relative="1" as="geometry">
            <mxPoint x="-2240" y="2030" as="sourcePoint" />
            <mxPoint x="-1850" y="2050" as="targetPoint" />
            <Array as="points">
              <mxPoint x="-2250" y="2110" />
              <mxPoint x="-2270" y="2110" />
            </Array>
          </mxGeometry>
        </mxCell>
        <mxCell id="a66DYzXwycHHfx5bdSL--159" value="" style="endArrow=none;html=1;rounded=0;entryX=0.101;entryY=0.99;entryDx=0;entryDy=0;strokeColor=#6C8EBF;exitX=1;exitY=0.5;exitDx=0;exitDy=0;entryPerimeter=0;" edge="1" parent="1" source="a66DYzXwycHHfx5bdSL--156" target="a66DYzXwycHHfx5bdSL--103">
          <mxGeometry width="50" height="50" relative="1" as="geometry">
            <mxPoint x="-2107" y="2200" as="sourcePoint" />
            <mxPoint x="-2107" y="2170" as="targetPoint" />
            <Array as="points">
              <mxPoint x="-2310" y="2090" />
              <mxPoint x="-2270" y="2090" />
            </Array>
          </mxGeometry>
        </mxCell>
        <mxCell id="a66DYzXwycHHfx5bdSL--160" value="" style="endArrow=none;html=1;rounded=0;entryX=1;entryY=0.5;entryDx=0;entryDy=0;strokeColor=#6C8EBF;exitX=0;exitY=1;exitDx=0;exitDy=0;" edge="1" parent="1" source="a66DYzXwycHHfx5bdSL--103" target="a66DYzXwycHHfx5bdSL--154">
          <mxGeometry width="50" height="50" relative="1" as="geometry">
            <mxPoint x="-2097" y="2210" as="sourcePoint" />
            <mxPoint x="-2097" y="2180" as="targetPoint" />
            <Array as="points">
              <mxPoint x="-2280" y="2060" />
            </Array>
          </mxGeometry>
        </mxCell>
        <mxCell id="a66DYzXwycHHfx5bdSL--161" value="" style="endArrow=none;html=1;rounded=0;entryX=0;entryY=0.75;entryDx=0;entryDy=0;strokeColor=#6C8EBF;exitX=1;exitY=0.5;exitDx=0;exitDy=0;" edge="1" parent="1" source="a66DYzXwycHHfx5bdSL--153" target="a66DYzXwycHHfx5bdSL--103">
          <mxGeometry width="50" height="50" relative="1" as="geometry">
            <mxPoint x="-2087" y="2220" as="sourcePoint" />
            <mxPoint x="-2087" y="2190" as="targetPoint" />
            <Array as="points">
              <mxPoint x="-2310" y="1995" />
            </Array>
          </mxGeometry>
        </mxCell>
        <mxCell id="a66DYzXwycHHfx5bdSL--162" value="" style="endArrow=none;html=1;rounded=0;entryX=0;entryY=0;entryDx=0;entryDy=0;strokeColor=#6C8EBF;exitX=1;exitY=0.5;exitDx=0;exitDy=0;" edge="1" parent="1" source="a66DYzXwycHHfx5bdSL--152" target="a66DYzXwycHHfx5bdSL--103">
          <mxGeometry width="50" height="50" relative="1" as="geometry">
            <mxPoint x="-2077" y="2230" as="sourcePoint" />
            <mxPoint x="-2077" y="2200" as="targetPoint" />
            <Array as="points">
              <mxPoint x="-2280" y="1906" />
            </Array>
          </mxGeometry>
        </mxCell>
        <mxCell id="a66DYzXwycHHfx5bdSL--163" value="" style="endArrow=none;html=1;rounded=0;entryX=0.5;entryY=1;entryDx=0;entryDy=0;strokeColor=#6C8EBF;exitX=0.25;exitY=0;exitDx=0;exitDy=0;" edge="1" parent="1" source="a66DYzXwycHHfx5bdSL--103" target="a66DYzXwycHHfx5bdSL--151">
          <mxGeometry width="50" height="50" relative="1" as="geometry">
            <mxPoint x="-2107" y="2200" as="sourcePoint" />
            <mxPoint x="-2107" y="2170" as="targetPoint" />
            <Array as="points">
              <mxPoint x="-2250" y="1920" />
              <mxPoint x="-2270" y="1920" />
            </Array>
          </mxGeometry>
        </mxCell>
      </root>
    </mxGraphModel>
  </diagram>
</mxfile>
